<svg xmlns="http://www.w3.org/2000/svg" width="26.161" height="26.155" viewBox="0 0 26.161 26.155">
  <path id="Icon_awesome-instagram" data-name="Icon awesome-instagram" d="M13.078,8.609a6.706,6.706,0,1,0,6.706,6.706A6.7,6.7,0,0,0,13.078,8.609Zm0,11.065a4.36,4.36,0,1,1,4.36-4.36,4.368,4.368,0,0,1-4.36,4.36Zm8.544-11.34a1.564,1.564,0,1,1-1.564-1.564A1.56,1.56,0,0,1,21.622,8.335Zm4.441,1.587a7.74,7.74,0,0,0-2.113-5.48,7.791,7.791,0,0,0-5.48-2.113c-2.159-.123-8.632-.123-10.791,0A7.78,7.78,0,0,0,2.2,4.436,7.766,7.766,0,0,0,.087,9.917c-.123,2.159-.123,8.632,0,10.791A7.74,7.74,0,0,0,2.2,26.188,7.8,7.8,0,0,0,7.679,28.3c2.159.123,8.632.123,10.791,0a7.74,7.74,0,0,0,5.48-2.113,7.791,7.791,0,0,0,2.113-5.48c.123-2.159.123-8.626,0-10.785Zm-2.79,13.1a4.414,4.414,0,0,1-2.486,2.486c-1.722.683-5.807.525-7.71.525s-5.994.152-7.71-.525a4.414,4.414,0,0,1-2.486-2.486c-.683-1.722-.525-5.807-.525-7.71s-.152-5.994.525-7.71A4.414,4.414,0,0,1,5.368,5.119c1.722-.683,5.807-.525,7.71-.525s5.994-.152,7.71.525a4.414,4.414,0,0,1,2.486,2.486c.683,1.722.525,5.807.525,7.71S23.957,21.309,23.274,23.025Z" transform="translate(0.005 -2.238)" fill="#fff"/>
</svg>
