<svg xmlns="http://www.w3.org/2000/svg" width="24.231" height="19.68" viewBox="0 0 24.231 19.68">
  <path id="Icon_awesome-twitter" data-name="Icon awesome-twitter" d="M21.74,8.285c.015.215.015.431.015.646A14.033,14.033,0,0,1,7.626,23.06,14.034,14.034,0,0,1,0,20.831a10.273,10.273,0,0,0,1.2.061,9.946,9.946,0,0,0,6.165-2.122,4.975,4.975,0,0,1-4.643-3.444,6.263,6.263,0,0,0,.938.077,5.252,5.252,0,0,0,1.307-.169A4.967,4.967,0,0,1,.984,10.361V10.3a5,5,0,0,0,2.245.63A4.973,4.973,0,0,1,1.691,4.288a14.116,14.116,0,0,0,10.24,5.2,5.606,5.606,0,0,1-.123-1.138,4.971,4.971,0,0,1,8.594-3.4,9.777,9.777,0,0,0,3.152-1.2,4.953,4.953,0,0,1-2.183,2.737,9.955,9.955,0,0,0,2.86-.769A10.675,10.675,0,0,1,21.74,8.285Z" transform="translate(0 -3.381)" fill="#fff"/>
</svg>
