<svg xmlns="http://www.w3.org/2000/svg" width="24.473" height="24.472" viewBox="0 0 24.473 24.472">
  <path id="Icon_awesome-linkedin-in" data-name="Icon awesome-linkedin-in" d="M5.478,24.473H.4V8.134H5.478ZM2.938,5.905A2.952,2.952,0,1,1,5.877,2.939,2.963,2.963,0,0,1,2.938,5.905ZM24.467,24.473H19.4V16.519c0-1.9-.038-4.326-2.638-4.326-2.638,0-3.042,2.059-3.042,4.19v8.09H8.656V8.134h4.866v2.229h.071a5.331,5.331,0,0,1,4.8-2.638c5.135,0,6.079,3.381,6.079,7.773v8.975Z" transform="translate(0 -0.001)" fill="#fff"/>
</svg>
