<svg xmlns="http://www.w3.org/2000/svg" width="35.995" height="25.309" viewBox="0 0 35.995 25.309">
  <path id="Icon_awesome-youtube" data-name="Icon awesome-youtube" d="M36.292,8.46a4.523,4.523,0,0,0-3.182-3.2C30.3,4.5,19.047,4.5,19.047,4.5s-11.256,0-14.063.757A4.523,4.523,0,0,0,1.8,8.46c-.752,2.825-.752,8.72-.752,8.72s0,5.895.752,8.72a4.455,4.455,0,0,0,3.182,3.152c2.807.757,14.063.757,14.063.757s11.256,0,14.063-.757A4.455,4.455,0,0,0,36.292,25.9c.752-2.825.752-8.72.752-8.72s0-5.895-.752-8.72ZM15.366,22.532v-10.7l9.408,5.352-9.408,5.352Z" transform="translate(-1.05 -4.5)" fill="#fff"/>
</svg>
